<svg xmlns="http://www.w3.org/2000/svg" style="display: none;"><symbol id="arrow-down" viewBox="0 0 576 576"><title>arrow down</title><g class="nc-icon-wrapper"><path d="M288 316.13l118.8-118.8 33.94 33.93-152.74 152.74-152.74-152.74 33.94-33.93z" fill="currentColor" stroke="none"></path></g></symbol><symbol id="logo" viewBox="0 0 118.8 148.6"><title>kimgrays logo</title><g class="nc-icon-wrapper" stroke="none"><g id="Group_19" data-name="Group 19" transform="translate(-677.5 -488.5)"><path id="Path_7" data-name="Path 7" d="M734.6 558.3c-4-3.3-7.3-6.7-12.8-16.3l-16.9-29.6 5.5-5.8c8.8-9 14.4-14.2 19.4-16.8v-.8h-13.1v.8c3.8 3 1.6 7.5-7.6 17.1l-20.9 21.6v-32.8c0-3.6.7-5 2.2-5.9v-.8H678v.8c1.6.9 2.3 2.3 2.3 5.9v56.7c0 3.5-.7 5-2.3 5.9v.7h12.4v-.7c-1.5-.9-2.2-2.4-2.2-5.9v-22.9l11.4-11.7 15.6 27.5c4 6.8 6 10.4 3.5 13v.7h15.9z" stroke="#000" stroke-width="1"></path><path id="Path_6" data-name="Path 6" d="M756.52 547.44c-1.76-3.04-5.28-4.16-8.88-1.6-3.28 2.32-5.36 8.48-8.4 14.56-2.72 5.44-5.2 10.96-8.48 12.88-2.56 1.52-5.44 1.84-6.24-.48-.96-2.72 2.48-5.84 7.52-8.64l-.16-.48c-5.04 2.8-12.24 6.88-10.4 11.12 1.2 2.72 5.52 2.64 8.96.16 3.12-2.32 5.28-6.16 7.28-10.08 8.72 4.16 7.92 28.72-15.52 28.72-10.4 0-16.88-6.56-17.52-13.52-1.04-11.52 6-20.16 18.88-15.44a4.757 4.757 0 0 0 .24-.56c-9.6-3.44-14.88-9.6-14.88-16.56 0-4.8 1.84-8.72 5.12-10.08 5.36-2.24 13.12 1.04 18.4 9.92h.56l1.52-8.24c-9.12-3.44-15.52-4-21.52-2-6 1.92-9.76 5.12-10.16 10.8-.72 9.92 10.24 12.8 16.72 14.88-12-3.04-23.12 4.4-21.12 16.88 1.12 6.96 10 14.8 23.36 14.8 23.68 0 24.8-23.12 17.92-28.88a11.542 11.542 0 0 0 9.92-1.44c5.68-3.6 9.92-11.44 6.88-16.72zm-7.12 16.4a11.458 11.458 0 0 1-11.44.48c.64-1.28 1.28-2.56 1.84-3.76 2.4-4.88 4.72-10.8 6.8-12.16 2.16-1.52 4.72-1.28 6.8 1.76 2.56 3.84 1.12 10.32-4 13.68z" fill="#d18b13" stroke="#d18b13" stroke-width="1"></path><path id="Path_5" data-name="Path 5" d="M778 602.7v.8c4.9.3 7.7 4.1 7.7 10.2V627a22.286 22.286 0 0 1-13.8 7.2c-17.8 2.3-30.9-7.6-36.3-25.2-5.4-17.7.8-37.9 17.9-41.6 13.1-2.8 25 5.8 32.3 17.4h.7l3-11.4c-8.5-5.6-15-8.4-25.8-8.4-19.8 0-37.7 16-37.7 35.8a35.743 35.743 0 0 0 35.7 35.8c19.6 0 29.2-10.6 31.9-16.4v-10.8c0-3.6.7-5 2.2-5.9v-.8z" stroke="#000" stroke-width="1"></path></g></g></symbol></svg>